<svg xmlns="http://www.w3.org/2000/svg" width="38" height="41" viewBox="0 0 38 41">
  <path fill="#FEF36E" fill-rule="evenodd" d="M901.43,37.07 L867.1,37.07 C866.27,37.07 865.6,37.74 865.6,38.57 C865.6,39.4 866.27,40.07 867.1,40.07 L901.43,40.07 C902.26,40.07 902.93,39.4 902.93,38.57 C902.93,37.74 902.26,37.07 901.43,37.07 M868.68,25.27 L885.36,8.53 L889.64,12.82 L872.94,29.53 L868.68,29.53 L868.68,25.27 Z M889.93,3.94 L894.23,8.24 L891.77,10.7 L887.48,6.41 L889.93,3.94 Z M867.18,32.53 L873.56,32.53 C873.96,32.53 874.34,32.37 874.62,32.09 L897.41,9.3 C897.69,9.02 897.85,8.63 897.85,8.24 C897.85,7.84 897.69,7.46 897.41,7.18 L890.99,0.76 C890.71,0.48 890.33,0.32 889.93,0.32 C889.53,0.32 889.15,0.48 888.87,0.76 L866.12,23.59 C865.84,23.88 865.68,24.26 865.68,24.65 L865.68,31.03 C865.68,31.86 866.35,32.53 867.18,32.53 L867.18,32.53 Z" transform="translate(-865)"/>
</svg>
